HIERARCHY
ROOT root
{
	OFFSET	0	13.1	24.9
	CHANNELS 6  Xposition Yposition Zposition Xrotation Yrotation Zrotation
	JOINT spine_1
	{
		OFFSET	0	9.99999	0
		CHANNELS 3  Xrotation Yrotation Zrotation
		JOINT spine_2
		{
			OFFSET	0	112	-10
			CHANNELS 3  Xrotation Yrotation Zrotation
			JOINT spine_3
			{
				OFFSET	0	206.5	19.3
				CHANNELS 3  Xrotation Yrotation Zrotation
				JOINT spine_4
				{
					OFFSET	0	110.4	14.6
					CHANNELS 3  Xrotation Yrotation Zrotation
					JOINT neck_1
					{
						OFFSET	0	71.8	-50.3
						CHANNELS 3  Xrotation Yrotation Zrotation
						JOINT neck_2
						{
							OFFSET	0	86.2	-25.8
							CHANNELS 3  Xrotation Yrotation Zrotation
							JOINT head_ee
							{
								OFFSET	0	179.8	-8.7
								CHANNELS 3  Xrotation Yrotation Zrotation
								End Site
								{
									OFFSET	1	0	0
								}
							}
						}
					}
					JOINT left_clavicle
					{
						OFFSET	-43.2	22.4	-70.8
						CHANNELS 3  Xrotation Yrotation Zrotation
						JOINT left_shoulder
						{
							OFFSET	-93.9	-5.79999	48.7
							CHANNELS 3  Xrotation Yrotation Zrotation
							JOINT left_elbow
							{
								OFFSET	-291.4	-30.8	15.2
								CHANNELS 3  Xrotation Yrotation Zrotation
								JOINT left_lowarm_twist
								{
									OFFSET	-110.7	-3.89999	13.6
									CHANNELS 3  Xrotation Yrotation Zrotation
									JOINT left_hand
									{
										OFFSET	-110.7	-3.89999	13.6
										CHANNELS 3  Xrotation Yrotation Zrotation
										JOINT left_ee
										{
											OFFSET	-80.8	-5.10001	12.1
											CHANNELS 3  Xrotation Yrotation Zrotation
											End Site
											{
												OFFSET	1	0	0
											}
										}
									}
								}
							}
						}
					}
					JOINT right_clavicle
					{
						OFFSET	43.2	22.4	-70.8
						CHANNELS 3  Xrotation Yrotation Zrotation
						JOINT right_shoulder
						{
							OFFSET	93.9	-5.79999	48.7
							CHANNELS 3  Xrotation Yrotation Zrotation
							JOINT right_elbow
							{
								OFFSET	291.4	-30.8	15.2
								CHANNELS 3  Xrotation Yrotation Zrotation
								JOINT right_lowarm_twist
								{
									OFFSET	110.7	-3.89999	13.6
									CHANNELS 3  Xrotation Yrotation Zrotation
									JOINT right_hand
									{
										OFFSET	110.7	-3.89999	13.6
										CHANNELS 3  Xrotation Yrotation Zrotation
										JOINT right_ee
										{
											OFFSET	80.8	-5.10001	12.1
											CHANNELS 3  Xrotation Yrotation Zrotation
											End Site
											{
												OFFSET	1	0	0
											}
										}
									}
								}
							}
						}
					}
				}
			}
		}
	}
	JOINT left_hip
	{
		OFFSET	-82.8	-127.5	0.300001
		CHANNELS 3  Xrotation Yrotation Zrotation
		JOINT left_knee
		{
			OFFSET	-28.2	-396.7	2.2
			CHANNELS 3  Xrotation Yrotation Zrotation
			JOINT left_ankle
			{
				OFFSET	-11.7	-411.3	35.4
				CHANNELS 3  Xrotation Yrotation Zrotation
				JOINT left_toes
				{
					OFFSET	0	-60	-88.6
					CHANNELS 3  Xrotation Yrotation Zrotation
					JOINT left_foot_ee
					{
						OFFSET	-22.5	-16.5	-42.2
						CHANNELS 3  Xrotation Yrotation Zrotation
						End Site
						{
							OFFSET	1	0	0
						}
					}
				}
			}
		}
	}
	JOINT right_hip
	{
		OFFSET	82.8	-127.5	0.300001
		CHANNELS 3  Xrotation Yrotation Zrotation
		JOINT right_knee
		{
			OFFSET	28.2	-396.7	2.2
			CHANNELS 3  Xrotation Yrotation Zrotation
			JOINT right_ankle
			{
				OFFSET	11.7	-411.3	35.4
				CHANNELS 3  Xrotation Yrotation Zrotation
				JOINT right_toes
				{
					OFFSET	0	-60	-88.6
					CHANNELS 3  Xrotation Yrotation Zrotation
					JOINT right_foot_ee
					{
						OFFSET	22.5	-16.5	-42.2
						CHANNELS 3  Xrotation Yrotation Zrotation
						End Site
						{
							OFFSET	1	0	0
						}
					}
				}
			}
		}
	}
}
MOTION
Frames: 16
Frame Time: 0.02
3299.2 738.088 -576.558 139.332 -73.5383 147.271 -3.40717 -0.343779 -1.92125 -3.40514 -0.220852 -1.93922 -3.39463 0.306406 -1.92756 -3.39981 -0.00180132 -1.95175 -6.697 11.9907 -0.241393 -6.67696 22.4357 2.15292 -0.0 0.0 -0.0 8.29688 24.2718 14.2085 -19.8436 -19.5853 62.7811 0.490057 -13.6454 0.0586329 -56.4188 -4.84104 4.9758 2.14601 25.9171 22.901 -0.0 0.0 -0.0 8.74591 10.1505 -17.1087 -10.2448 19.9539 -56.0658 1.6445 39.1644 -0.58504 -7.38401 0.317929 -0.888164 -0.195018 -2.88687 0.0791748 0.0 0.0 0.0 6.08292 31.8252 -21.3683 -10.2603 0.284587 1.54681 24.0491 -7.69509 -3.32433 -20.91 0.0 0.0 -0.0 0.0 -0.0 0.0266307 18.8059 -12.8802 -12.2603 -0.307563 -1.85281 16.8311 -12.8702 2.34109 16.9854 -0.0 -0.0 0.0 0.0 0.0 
3304.51 739.628 -577.43 143.062 -72.8534 150.838 -3.32895 -0.194311 -1.89789 -3.32695 -0.073172 -1.9064 -3.32185 0.437619 -1.85695 -3.32664 0.138912 -1.90274 -7.96142 11.9329 1.69043 -8.00548 21.0988 4.29464 -0.0 0.0 -0.0 8.32101 24.4106 14.2237 -20.2151 -19.4196 62.3459 0.57776 -15.9716 0.0810534 -56.0469 -4.79562 4.9612 1.44911 24.5257 18.2829 -0.0 0.0 -0.0 8.4399 8.57303 -16.4881 -10.211 20.8337 -57.2768 1.50416 36.688 -0.498761 -7.15858 0.306538 -0.86168 -0.264381 -3.20839 0.402031 0.0 0.0 0.0 5.76196 32.7233 -20.6639 -9.39218 0.271291 1.41427 23.8569 -5.38825 -3.27011 -19.9221 0.0 0.0 -0.0 0.0 -0.0 -0.804884 19.1376 -12.4525 -10.1714 -0.283317 -1.53323 15.6339 -12.436 2.1836 15.5085 -0.0 -0.0 0.0 0.0 0.0 
3306.18 745.963 -579.82 145.153 -72.1465 153.124 -3.27852 -0.189703 -1.94657 -3.27641 -0.0654771 -1.95469 -3.27143 0.456246 -1.90185 -3.27644 0.150219 -1.95001 -7.62341 11.6221 1.92204 -7.64718 20.3104 4.39479 -0.0 0.0 -0.0 8.51435 24.1842 14.5337 -19.2729 -19.2334 62.5834 0.555646 -15.3898 0.0750764 -54.9777 -4.6656 4.91759 1.16177 22.4592 15.927 -0.0 0.0 -0.0 8.73977 11.371 -17.0611 -11.2099 20.721 -57.7303 1.30108 32.801 -0.382957 -7.59842 0.32886 -0.913311 0.0981827 -2.09392 -1.53173 0.0 0.0 0.0 5.55934 33.2748 -20.5946 -8.81169 0.261281 1.32575 22.674 -3.02501 -3.10266 -20.0708 0.0 0.0 -0.0 0.0 -0.0 -0.730352 18.5879 -12.1549 -9.83809 -0.278372 -1.48232 12.3246 -9.67925 1.73829 14.7663 -0.0 -0.0 0.0 0.0 0.0 
3307.2 747.389 -580.773 145.897 -71.5451 153.83 -3.20337 -0.0914249 -1.99374 -3.20116 0.0356017 -1.99552 -3.19976 0.562205 -1.91505 -3.20479 0.252766 -1.97977 -7.74129 11.5029 2.5706 -7.76167 19.6437 5.0281 -0.0 0.0 -0.0 8.56839 23.9418 14.6472 -18.5278 -19.0713 62.7112 0.64534 -17.7283 0.100645 -54.4525 -4.60202 4.89527 0.749078 21.5033 13.1181 -0.0 0.0 -0.0 8.7556 12.6602 -17.0507 -12.4373 20.6656 -57.9458 1.2024 30.7783 -0.330962 -7.95628 0.347315 -0.955194 0.143069 -2.42743 -1.96844 0.0 0.0 0.0 4.58377 33.1867 -20.1604 -8.41199 0.253867 1.26487 21.9412 -1.13841 -2.9981 -20.023 0.0 0.0 -0.0 0.0 -0.0 -1.13604 18.3124 -11.7585 -9.11482 -0.26662 -1.37196 10.4553 -9.84477 1.48466 14.4981 -0.0 -0.0 0.0 0.0 0.0 
3306.93 748.739 -582.576 148.49 -70.9453 156.619 -3.16471 -0.0923021 -2.02957 -3.16242 0.0370045 -2.03133 -3.16102 0.571719 -1.9496 -3.16623 0.256708 -2.01539 -8.08166 11.324 2.8652 -8.10946 19.1478 5.33243 -0.0 0.0 -0.0 8.73477 23.7084 14.924 -17.6281 -19.0505 62.2708 0.669195 -18.3404 0.10803 -53.9176 -4.53748 4.87195 0.377016 20.479 10.5174 -0.0 0.0 -0.0 8.79722 13.8405 -17.0933 -13.1012 20.8777 -58.157 1.14025 29.4587 -0.299771 -8.16834 0.358375 -0.979959 0.382481 -2.01466 -3.388 0.0 0.0 0.0 4.37088 33.4882 -19.7093 -6.24913 0.206392 0.936376 20.3769 0.191903 -2.79748 -20.0664 0.0 0.0 -0.0 0.0 -0.0 -1.36215 17.6154 -11.574 -7.6881 -0.239359 -1.15473 9.01173 -7.3442 1.28532 14.0329 -0.0 -0.0 0.0 0.0 0.0 
3306.52 750.057 -583.009 150.178 -70.4508 158.402 -3.07111 -0.171695 -2.03115 -3.06881 -0.0421274 -2.03795 -3.06449 0.493765 -1.9777 -3.0699 0.175295 -2.03084 -7.67973 11.506 2.95749 -7.69192 19.3667 5.40035 -0.0 0.0 -0.0 8.89982 23.182 15.2466 -17.0577 -18.9956 61.6574 0.684066 -18.7198 0.112756 -53.5446 -4.4926 4.85533 0.0856262 20.439 8.75143 -0.0 0.0 -0.0 8.82517 15.1244 -17.0941 -14.1257 20.7235 -58.2302 1.07634 28.0653 -0.269021 -8.3507 0.367959 -1.00122 0.536671 -2.1117 -4.45388 0.0 0.0 0.0 4.21389 33.6922 -19.6333 -5.02246 0.173962 0.750921 19.255 0.161492 -2.65781 -20.0684 0.0 0.0 -0.0 0.0 -0.0 -1.80843 17.1378 -11.5129 -5.83488 -0.195885 -0.873671 8.46034 -5.1838 1.21026 13.7446 -0.0 -0.0 0.0 0.0 0.0 
3306.71 751.861 -586.061 153.786 -70.2482 162.152 -2.8098 -0.168175 -2.07839 -2.8074 -0.0356107 -2.08487 -2.80331 0.503149 -2.02359 -2.80898 0.177319 -2.07763 -7.40997 11.1891 3.09583 -7.40825 18.6366 5.42694 -0.0 0.0 -0.0 9.0089 23.5362 15.3528 -16.2885 -18.6986 61.0204 0.729389 -19.8657 0.127731 -53.0934 -4.43846 4.83483 -0.445057 19.2485 5.10737 -0.0 0.0 -0.0 8.92285 15.8029 -17.2736 -14.4122 20.7592 -58.4636 0.969047 25.6423 -0.220543 -8.53339 0.377629 -1.0225 0.605515 -2.05818 -4.89063 0.0 0.0 0.0 4.07938 33.9428 -18.576 -2.98871 0.111466 0.445076 18.5628 2.3489 -2.56029 -20.0198 0.0 0.0 -0.0 0.0 -0.0 -1.52186 16.6223 -11.2276 -4.04199 -0.14519 -0.603203 7.55477 -3.27875 1.08634 13.4308 -0.0 -0.0 0.0 0.0 0.0 
3309.65 751.169 -585.379 154.829 -69.5999 163.377 -2.93023 -0.178904 -2.06041 -2.92787 -0.0474608 -2.06761 -2.92332 0.491448 -2.00894 -2.92891 0.168077 -2.06132 -8.28152 11.2112 3.45728 -8.30433 18.5492 5.91843 -0.0 0.0 -0.0 9.07316 23.3026 15.4847 -15.2096 -19.3095 60.9657 0.732543 -19.9448 0.128805 -53.2452 -4.45666 4.84177 -0.300464 19.3071 5.99928 -0.0 0.0 -0.0 9.02458 15.3259 -17.5219 -14.8422 20.5183 -58.4381 0.972425 25.7201 -0.222007 -8.54118 0.378042 -1.0234 0.661506 -2.204 -5.32314 0.0 0.0 0.0 2.83277 34.3513 -18.3462 -2.901 0.108527 0.431935 18.0635 2.65779 -2.49595 -20.0221 0.0 0.0 -0.0 0.0 -0.0 -1.73148 16.7706 -11.4256 -3.31026 -0.12207 -0.493284 7.17046 -2.82887 1.03308 13.2075 -0.0 -0.0 0.0 0.0 0.0 
3307.79 752.751 -586.303 156.517 -68.7542 165.206 -2.8531 -0.143211 -2.07413 -2.8507 -0.010968 -2.07903 -2.84755 0.52702 -2.01119 -2.85313 0.202848 -2.06915 -7.82968 11.3073 3.3312 -7.83962 18.7518 5.7479 -0.0 0.0 -0.0 9.0202 23.4222 15.3875 -13.4919 -19.8445 60.6198 0.777665 -21.0682 0.144613 -53.1512 -4.44539 4.83748 -0.479376 19.2844 4.91595 -0.0 0.0 -0.0 9.17101 15.6135 -17.8298 -15.1281 20.3857 -58.4748 0.919679 24.4928 -0.199626 -8.71881 0.387512 -1.04405 0.645748 -2.57788 -5.36993 0.0 0.0 0.0 2.83497 34.4341 -18.1495 -1.62144 0.0633585 0.24076 17.7454 3.02947 -2.45424 -19.9881 0.0 0.0 -0.0 0.0 -0.0 -2.29936 16.811 -11.3115 -2.03344 -0.0783683 -0.302207 6.61653 -1.61594 0.957049 12.9904 -0.0 -0.0 0.0 0.0 0.0 
3313.22 752.774 -586.598 155.519 -69.9548 163.988 -2.75419 -0.21307 -2.04939 -2.75185 -0.082258 -2.05879 -2.74612 0.449314 -2.01087 -2.75174 0.126167 -2.05657 -8.11251 11.0857 3.21409 -8.1329 18.4602 5.62597 -0.0 0.0 -0.0 9.06438 23.6596 15.4149 -12.5161 -19.9976 60.386 0.832177 -22.4031 0.164801 -53.2338 -4.45529 4.84125 -0.741059 19.2434 3.33111 -0.0 0.0 -0.0 9.17831 14.9524 -17.8783 -15.9863 19.7136 -58.5579 0.862166 23.1267 -0.176406 -8.78889 0.391266 -1.05219 0.665913 -2.73499 -5.56783 0.0 0.0 0.0 2.51205 34.6544 -17.5424 -0.878867 0.0351892 0.130281 17.448 3.29235 -2.41549 -19.9205 0.0 0.0 -0.0 0.0 -0.0 -2.6235 16.891 -10.8794 -1.25417 -0.0496058 -0.186074 5.81053 -0.841466 0.843985 12.6763 -0.0 -0.0 0.0 0.0 0.0 
3312.5 750.736 -583.847 155.786 -70.5197 164.199 -2.65574 -0.208659 -2.04647 -2.65341 -0.0780424 -2.05559 -2.64791 0.449126 -2.00746 -2.65351 0.126518 -2.05318 -7.23287 11.0387 3.23984 -7.22225 18.2269 5.51158 -0.0 0.0 -0.0 8.9748 24.5166 15.1467 -11.272 -20.3343 59.7204 0.894409 -23.8961 0.189269 -53.2367 -4.45564 4.84139 -0.942515 20.0019 2.45103 -0.0 0.0 -0.0 9.27533 14.8607 -18.0962 -16.4003 19.5957 -59.0705 0.797807 21.5643 -0.151935 -8.76055 0.389747 -1.0489 0.555826 -3.19813 -5.02365 0.0 0.0 0.0 2.44029 34.6758 -17.4472 -0.379135 0.0154257 0.0561374 18.1135 3.40475 -2.49988 -19.7457 0.0 0.0 -0.0 0.0 -0.0 -2.84732 15.215 -11.0612 -0.64169 -0.02589 -0.095071 5.72283 -1.38607 0.830501 12.8227 -0.0 -0.0 0.0 0.0 0.0 
3317.1 750.198 -581.012 156.875 -70.6391 165.121 -2.5456 -0.194991 -2.06678 -2.54322 -0.0631104 -2.07499 -2.53828 0.464656 -2.0233 -2.54396 0.139353 -2.07127 -6.61843 11.1067 2.92348 -6.59147 18.4922 5.12222 -0.0 0.0 -0.0 8.92129 24.4586 15.0788 -10.0458 -20.6283 59.3679 0.945852 -25.1049 0.210604 -53.2379 -4.45579 4.84144 -1.08625 20.205 1.68626 -0.0 0.0 -0.0 9.22404 14.6219 -17.9942 -16.7168 19.3579 -59.5438 0.735411 20.0167 -0.129785 -8.86345 0.395271 -1.06085 0.639133 -2.77606 -5.40624 0.0 0.0 0.0 2.33543 34.71 -17.4339 -0.000435384 1.79279e-05 6.44084e-05 17.2903 3.74416 -2.39405 -19.8033 0.0 0.0 -0.0 0.0 -0.0 -2.9938 16.204 -10.9873 -0.158669 -0.00650093 -0.0234815 6.31102 -0.147472 0.91672 12.7862 -0.0 -0.0 0.0 0.0 0.0 
3320.69 750.551 -582.873 156.158 -71.1682 164.455 -2.54755 -0.126385 -2.05544 -2.5452 0.00463572 -2.05931 -2.54286 0.526414 -1.99093 -2.54834 0.205447 -2.04905 -6.29914 11.0161 2.54864 -6.26525 18.5509 4.68343 -0.0 0.0 -0.0 8.93201 25.0246 15.0031 -9.35966 -20.8677 59.143 0.994107 -26.2175 0.231501 -53.2409 -4.45614 4.84158 -1.28152 20.4784 0.652062 -0.0 0.0 -0.0 8.98115 14.4024 -17.4708 -16.749 19.1055 -59.5956 0.688774 18.8396 -0.114272 -8.85039 0.394568 -1.05933 0.608732 -2.87855 -5.24556 0.0 0.0 0.0 2.36166 34.7238 -17.5065 0.254804 -0.0105761 -0.0376713 17.6587 3.84033 -2.44085 -19.6677 0.0 0.0 -0.0 0.0 -0.0 -3.80293 15.5058 -10.6855 0.191791 0.00794488 0.0283596 5.89489 -0.0228447 0.857667 12.5494 -0.0 -0.0 0.0 0.0 0.0 
3325.16 753.2 -581.407 156.403 -71.3113 164.744 -2.56788 -0.115417 -2.10484 -2.56542 0.0187231 -2.10792 -2.56349 0.553111 -2.03417 -2.5692 0.224985 -2.09596 -5.98725 11.0427 2.5675 -5.94244 18.5424 4.66217 -0.0 0.0 -0.0 8.90388 25.1303 14.9459 -8.85098 -21.0537 58.933 1.05073 -27.4964 0.257085 -53.2394 -4.45596 4.84151 -1.37057 20.6312 0.195174 -0.0 0.0 -0.0 8.94499 14.4186 -17.3907 -16.687 18.9947 -59.4169 0.659332 18.0878 -0.104947 -8.86107 0.395143 -1.06057 0.584506 -2.97945 -5.12544 0.0 0.0 0.0 2.40021 34.7189 -17.5387 0.455163 -0.0190101 -0.0672608 17.2931 3.92202 -2.39395 -19.7305 0.0 0.0 -0.0 0.0 -0.0 -4.17505 15.6517 -10.6343 0.38385 0.0159961 0.0567326 5.98136 -0.0208548 0.870014 12.6407 -0.0 -0.0 0.0 0.0 0.0 
3321.37 752.176 -580.736 157.814 -71.2341 165.999 -2.54799 -0.147998 -2.03059 -2.5457 -0.0185142 -2.03588 -2.54255 0.498054 -1.97414 -2.54795 0.180093 -2.02799 -6.9568 10.8982 2.69451 -6.94414 18.3175 4.90126 -0.0 0.0 -0.0 8.71478 25.3215 14.6476 -8.23927 -21.0187 59.1536 1.1803 -30.313 0.319728 -53.1492 -4.44515 4.83739 -1.58699 20.7026 -1.04766 -0.0 0.0 -0.0 8.82399 14.4153 -17.1258 -15.8413 19.1856 -59.7489 0.644517 17.7071 -0.100394 -8.86465 0.395335 -1.06099 0.484228 -3.40001 -4.63059 0.0 0.0 0.0 2.43897 34.5288 -17.4606 0.847844 -0.0358401 -0.125168 17.5801 3.88396 -2.43072 -19.5149 0.0 0.0 -0.0 0.0 -0.0 -3.7604 14.2344 -10.9511 1.71531 0.0744267 0.252683 5.9518 -0.638819 0.864518 12.4142 -0.0 -0.0 0.0 0.0 0.0 
3322.57 747.019 -579.529 157.881 -71.5509 166.175 -2.52058 -0.0779179 -2.16265 -2.51798 0.059822 -2.16322 -2.51759 0.605275 -2.07772 -2.52352 0.269622 -2.14719 -7.38378 10.7359 2.30499 -7.38984 18.3511 4.54375 -0.0 0.0 -0.0 7.7706 25.1494 13.3471 -7.43873 -21.5881 60.2782 1.45069 -35.7 0.467187 -52.4667 -4.36352 4.80565 -1.81926 20.4804 -2.52278 -0.0 0.0 -0.0 8.63585 14.7126 -16.7 -15.6156 19.0379 -59.8954 0.61606 16.9712 -0.0919131 -8.85624 0.394883 -1.06001 0.297761 -5.02711 -4.06065 0.0 0.0 0.0 2.06867 34.0879 -17.2364 2.33781 -0.103306 -0.343828 19.1587 2.31322 -2.6354 -19.3551 0.0 0.0 -0.0 0.0 -0.0 -4.19152 14.0304 -11.0303 2.42334 0.107352 0.356326 5.90886 -0.512719 0.858648 12.8905 -0.0 -0.0 0.0 0.0 0.0 
